# xmcd CD database file
#
# Track frame offsets:
#	150
#	12662
#	26780
#	43638
#	63196
#	86508
#	108896
#	122036
#	141970
#	153426
#	162820
#	184398
#	211406
#	239172
#
# Disc length: 3396 seconds
#
# Revision: 3
# Processed by: cddbd v1.4PL0 Copyright (c) Steve Scherf et al.
# Submitted via: CDex 1.50
#
DISCID=c40d420e
DTITLE=aquarelle - sunday jazz session mix
DYEAR=2004
DGENRE=Jazz
TTITLE0=andrei borisenko - gitara v nochi
TTITLE1=valdis pelsh - vot ne beda!
TTITLE2=grgori feat. waveboy - theme 44
TTITLE3=nevsky - prospect
TTITLE4=aquarelle - club theme
TTITLE5=waiting track
TTITLE6=bonus 1
TTITLE7=bonus 2
TTITLE8=bonus 3
TTITLE9=bonus 4
TTITLE10=bonus 5
TTITLE11=bonus 6
TTITLE12=bpnus 7
TTITLE13=bonus 8
EXTD=YEAR: 2004
EXTT0=
EXTT1=
EXTT2=
EXTT3=
EXTT4=
EXTT5=
EXTT6=
EXTT7=
EXTT8=
EXTT9=
EXTT10=
EXTT11=
EXTT12=
EXTT13=
PLAYORDER=
